<svg width="1512" height="436" viewBox="0 0 1512 436" fill="none" xmlns="http://www.w3.org/2000/svg">
<path d="M-5.91504 57.6569C37.6155 15.6569 178.946 -43.1431 396.026 57.6569C667.375 183.657 835.502 512.157 1135.78 416.157C1436.07 320.157 1335.19 187.157 1630 216.657" stroke="#EEA849" stroke-width="4"/>
<path d="M-5.91504 57.6569C37.6155 15.6569 147.614 -7.13466 396.026 57.6569C790.929 160.657 870.691 457.157 1135 380.657C1316.42 328.148 1332.06 209.657 1630 216.657" stroke="#EEA849"/>
<path d="M-63 67.1569C6.59676 34.6569 136.406 16.1568 396.026 57.6568C741.199 112.832 913.701 401.995 1116.24 360.157C1268.72 328.657 1333.63 193.657 1630 216.657" stroke="#EEA849"/>
</svg>
